<?xml version="1.0" standalone="no"?>
<!DOCTYPE svg PUBLIC "-//W3C//DTD SVG 20010904//EN"
 "http://www.w3.org/TR/2001/REC-SVG-20010904/DTD/svg10.dtd">
<svg version="1.0" xmlns="http://www.w3.org/2000/svg"
 width="1166.000000pt" height="1280.000000pt" viewBox="0 0 1166.000000 1280.000000"
 preserveAspectRatio="xMidYMid meet">
<metadata>
Created by potrace 1.15, written by Peter Selinger 2001-2017
</metadata>
<g transform="translate(0.000000,1280.000000) scale(0.100000,-0.100000)"
fill="#000000" stroke="none">
<path d="M6245 12785 c-264 -48 -516 -185 -726 -396 -325 -327 -562 -852 -629
-1391 -11 -83 -10 -103 3 -143 29 -84 88 -138 171 -155 100 -21 217 41 250
133 8 23 22 94 31 157 54 385 238 794 475 1055 161 178 315 266 524 300 144
23 216 89 224 206 6 78 -16 136 -72 187 -67 62 -119 71 -251 47z"/>
<path d="M9575 11254 c-388 -56 -840 -266 -1215 -564 -141 -113 -346 -317
-366 -366 -36 -84 -12 -197 54 -255 48 -42 91 -59 151 -59 80 0 119 22 217
123 162 169 407 342 664 471 285 142 507 207 710 207 121 0 177 -14 260 -65
105 -65 200 -66 282 -3 54 42 81 97 86 172 6 113 -60 190 -224 259 -150 63
-230 78 -419 81 -93 2 -183 1 -200 -1z"/>
<path d="M895 11061 c-163 -74 -183 -299 -35 -397 33 -22 62 -29 158 -41 64
-8 216 -28 337 -44 873 -121 1436 -335 1569 -597 10 -19 24 -65 32 -104 17
-83 32 -113 71 -149 85 -79 205 -85 297 -15 44 33 86 118 86 171 0 97 -67 285
-140 390 -18 26 -59 75 -92 111 -326 348 -969 566 -1986 674 -234 24 -246 24
-297 1z"/>
<path d="M5966 10159 c-708 -45 -1457 -310 -2096 -741 -686 -463 -1049 -994
-1119 -1640 -47 -428 59 -952 310 -1530 183 -424 363 -755 870 -1605 629
-1053 847 -1474 1014 -1953 155 -449 201 -879 129 -1220 -41 -195 -127 -399
-243 -572 -79 -118 -89 -128 -153 -152 -83 -30 -138 -113 -138 -206 0 -88 44
-161 121 -201 20 -10 83 -26 140 -35 56 -9 237 -49 401 -90 710 -176 983 -224
1202 -211 238 14 351 99 371 282 8 72 -6 136 -42 183 -21 27 -26 51 -35 139
-7 80 -6 118 3 150 13 49 7 119 -16 163 -22 42 -21 229 1 272 28 54 30 136 4
196 -22 50 -22 55 -11 204 34 443 129 807 306 1171 112 231 233 425 565 907
482 700 683 1028 920 1495 328 648 503 1188 587 1805 25 191 25 682 0 855 -53
354 -123 586 -264 873 -478 975 -1573 1541 -2827 1461z m573 -464 c497 -56
948 -235 1291 -512 103 -83 284 -271 357 -370 397 -535 526 -1234 377 -2040
-76 -417 -226 -846 -464 -1328 -237 -481 -456 -841 -976 -1605 -312 -459 -437
-659 -548 -880 -131 -259 -212 -480 -266 -725 -12 -55 -23 -105 -25 -112 -5
-15 -165 56 -165 73 0 19 153 881 216 1214 214 1143 425 2067 616 2695 l34
110 64 8 c392 46 633 96 865 177 399 141 595 345 555 578 -32 186 -208 402
-494 606 -211 151 -400 181 -590 92 -244 -114 -456 -393 -686 -904 l-55 -124
-160 1 c-161 2 -340 12 -581 32 l-132 12 -37 96 c-176 451 -364 775 -575 992
-212 216 -421 291 -632 226 -151 -47 -291 -161 -439 -357 -147 -195 -218 -374
-206 -520 34 -407 559 -706 1517 -864 l36 -6 52 -213 c205 -827 304 -1646 289
-2382 -12 -577 -82 -967 -225 -1251 l-39 -77 -23 99 c-107 466 -321 964 -703
1634 -55 96 -267 454 -472 795 -527 876 -698 1190 -858 1576 -230 553 -300
1023 -213 1434 90 426 389 825 861 1150 538 370 1150 603 1758 669 170 19 512
19 676 1z m-1761 -2170 c99 -46 217 -186 325 -385 36 -68 167 -360 167 -374 0
-5 -211 39 -325 68 -325 83 -528 185 -576 289 -26 57 -24 72 16 155 81 171
193 272 300 272 22 0 64 -11 93 -25z m2979 -337 c203 -136 259 -238 177 -328
-86 -95 -345 -166 -711 -196 l-82 -6 43 98 c115 264 230 433 329 484 73 37
126 26 244 -52z m-1506 -995 c159 -4 229 -10 226 -17 -63 -168 -297 -1028
-297 -1092 0 -11 -3 -14 -8 -9 -5 6 -17 64 -26 130 -35 239 -157 807 -212 989
-6 17 -2 18 41 13 26 -4 150 -10 276 -14z m-548 -4364 c178 -42 260 -70 399
-140 111 -56 118 -61 118 -89 0 -26 -3 -30 -22 -25 -13 2 -66 14 -118 24 -52
11 -189 53 -305 94 l-210 73 -3 47 c-2 26 0 47 4 47 3 0 65 -14 137 -31z m-28
-579 c184 -68 270 -92 410 -115 109 -18 139 -25 132 -31 -2 -3 -80 7 -173 20
-93 14 -254 37 -359 51 -104 15 -194 30 -198 34 -8 8 13 101 22 101 3 0 77
-27 166 -60z m-270 -490 c33 -5 202 -30 375 -55 173 -24 347 -50 387 -57 l72
-11 6 -56 c12 -110 13 -106 -15 -103 -24 4 -931 186 -977 197 l-23 5 31 51
c27 44 35 49 58 45 14 -3 53 -10 86 -16z"/>
<path d="M9578 8388 c-53 -14 -123 -79 -144 -133 -23 -61 -15 -148 19 -201 49
-77 83 -94 242 -119 377 -58 691 -235 973 -547 131 -146 256 -314 530 -718 39
-58 87 -115 105 -128 71 -48 158 -53 235 -13 97 50 145 170 108 272 -22 63
-345 527 -525 754 -122 155 -350 381 -473 469 -258 186 -529 295 -886 356
-132 22 -131 22 -184 8z"/>
<path d="M135 7827 c-60 -29 -87 -57 -114 -117 -59 -129 22 -282 163 -309 28
-5 303 -19 611 -31 308 -11 671 -25 807 -31 342 -15 413 -12 466 24 62 40 95
96 100 168 9 119 -63 220 -173 243 -25 5 -526 27 -1665 72 -139 5 -147 4 -195
-19z"/>
<path d="M9367 5636 c-145 -52 -202 -225 -113 -345 40 -54 85 -77 202 -105
150 -36 239 -68 374 -135 500 -248 885 -722 1020 -1258 33 -129 54 -169 108
-206 147 -103 352 0 352 177 0 106 -99 405 -205 621 -229 465 -591 829 -1048
1054 -170 84 -288 128 -468 176 -148 39 -167 40 -222 21z"/>
<path d="M2510 5080 c-432 -36 -674 -73 -945 -145 -569 -149 -950 -438 -1181
-897 -57 -114 -49 -212 26 -286 51 -52 87 -66 162 -66 88 0 149 36 193 112 17
28 53 91 80 139 60 105 200 251 317 331 94 64 270 150 393 191 262 88 552 135
1086 175 205 15 237 25 295 84 129 133 41 360 -146 376 -30 3 -156 -4 -280
-14z"/>
</g>
</svg>
