<?xml version="1.0" standalone="no"?>
<!DOCTYPE svg PUBLIC "-//W3C//DTD SVG 20010904//EN"
 "http://www.w3.org/TR/2001/REC-SVG-20010904/DTD/svg10.dtd">
<svg version="1.0" xmlns="http://www.w3.org/2000/svg"
 width="1280.000000pt" height="1280.000000pt" viewBox="0 0 1280.000000 1280.000000"
 preserveAspectRatio="xMidYMid meet">
<metadata>
Created by potrace 1.15, written by Peter Selinger 2001-2017
</metadata>
<g transform="translate(0.000000,1280.000000) scale(0.100000,-0.100000)"
fill="#000000" stroke="none">
<path d="M2177 9843 c-4 -3 -7 -80 -7 -169 l0 -163 43 -34 c37 -31 53 -36 132
-46 241 -32 410 -100 615 -249 114 -83 408 -388 639 -662 226 -267 2049 -2514
2057 -2534 4 -12 -1465 -1702 -1769 -2034 -229 -251 -551 -520 -790 -660 -224
-132 -499 -230 -741 -263 -79 -11 -94 -17 -137 -51 l-49 -39 2 -172 3 -172
1398 -3 1398 -2 19 42 c17 37 20 67 20 210 l0 167 -32 5 c-18 3 -87 7 -153 10
-129 6 -281 33 -336 61 -90 45 -128 79 -155 139 -35 79 -42 172 -19 252 36
127 123 252 401 576 309 359 1289 1477 1296 1477 8 1 1230 -1486 1380 -1680
141 -181 248 -343 270 -404 38 -110 12 -242 -63 -310 -79 -71 -201 -103 -429
-113 l-145 -7 -3 -180 c-2 -99 0 -195 3 -212 l6 -33 1804 0 1805 0 0 175 0
176 -27 25 c-43 38 -73 51 -138 58 -242 27 -652 271 -921 548 -137 141 -225
249 -1393 1707 l-1132 1414 34 36 c19 20 369 412 778 871 803 903 1024 1145
1200 1315 367 354 620 478 1053 515 121 10 132 13 168 41 l38 31 0 174 0 174
-1329 0 -1329 0 -16 -40 c-12 -31 -16 -77 -16 -203 l0 -163 188 -12 c231 -15
335 -38 405 -91 64 -48 86 -88 93 -170 8 -88 -20 -189 -73 -258 -107 -140
-525 -623 -1015 -1171 -303 -339 -553 -619 -555 -621 -2 -3 -10 4 -17 15 -8
10 -303 377 -655 814 -627 777 -773 969 -807 1060 -24 65 -22 154 5 215 35 79
131 141 271 176 70 17 260 38 348 39 l34 0 -4 193 c-1 105 -7 198 -11 205 -7
9 -382 12 -1821 12 -997 0 -1816 -3 -1819 -7z"/>
</g>
</svg>
